<svg width="1235" height="331" viewBox="0 0 1235 331" fill="none" xmlns="http://www.w3.org/2000/svg">
<g clip-path="url(#clip0_36_20)">
<path d="M162.714 184.702C158.599 189.749 155.001 194.803 150.736 199.21C132.264 218.293 109.098 219.302 89.6412 201.348C70.5177 183.702 55.4092 162.832 43.1798 139.887C26.7336 109.03 14.4827 76.6482 8.67854 42.0766C7.47938 34.934 8.01719 27.4889 7.91898 20.181C7.89732 18.5695 8.39216 16.8809 8.96193 15.3438C11.5247 8.42992 17.0793 7.03242 21.8768 12.6917C25.584 17.0647 28.5316 22.2177 31.1314 27.3698C42.5026 49.905 53.1006 72.8469 65.0216 95.0824C72.8597 109.702 84.0774 121.996 97.5892 131.836C124.101 151.145 154.958 147.93 177.044 123.703C189.181 110.39 197.477 94.679 205.178 78.567C212.697 62.8346 220.434 47.2033 228.297 31.64C230.001 28.2673 232.441 25.1933 234.904 22.2887C250.094 4.37234 267.623 2.58459 286.129 17.0251C299.486 27.4474 307.532 41.0944 309.559 57.9008C310.119 62.5398 309.432 67.5845 308.181 72.1304C305.96 80.1998 300.886 82.0308 293.222 78.737C286.834 75.9917 280.489 72.7198 273.782 71.2216C252.115 66.3825 233.779 73.6394 218.099 88.48C205.689 100.226 197.475 114.918 190.136 130.095C183.844 143.106 178.044 156.354 171.733 169.355C169.201 174.57 165.884 179.404 162.714 184.702Z" fill="#2A3A2B"/>
<path d="M1013.88 234.472C1016.84 234.472 1019.31 234.472 1022.18 234.472C1022.18 244.829 1022.18 254.864 1022.18 265.117C979.894 265.117 937.778 265.117 895.329 265.117C895.329 212.812 895.329 160.453 895.329 107.902C935.739 107.902 976.007 107.902 1016.65 107.902C1016.65 117.725 1016.65 127.611 1016.65 137.954C986.567 137.954 956.34 137.954 925.723 137.954C925.723 150.583 925.723 162.764 925.723 175.497C948.491 164.301 972.588 167.539 996.544 166.977C996.544 177.427 996.544 187.34 996.544 197.843C991.888 197.843 987.443 197.751 983.003 197.862C971.854 198.139 960.628 197.818 949.589 199.085C942.332 199.918 935.296 202.953 928.281 205.353C927.001 205.791 925.507 207.897 925.462 209.277C925.197 217.406 925.332 225.547 925.332 234.472C954.936 234.472 984.166 234.472 1013.88 234.472Z" fill="#2B3A2C"/>
<path d="M1204.52 207.441C1214.72 226.718 1224.71 245.686 1235.19 265.569C1229.06 265.569 1223.52 265.617 1217.99 265.555C1212.51 265.494 1205.93 267.145 1201.87 264.684C1197.82 262.23 1195.69 255.829 1193.81 250.753C1191.13 243.482 1186.57 241.96 1179.13 241.935C1154.72 241.851 1130.94 245.135 1108.04 253.403C1100.57 256.101 1093.88 260.968 1086.82 264.808C1086.12 265.186 1085.29 265.525 1084.52 265.529C1074.75 265.577 1064.99 265.56 1054.47 265.56C1055.66 263.097 1056.44 261.335 1057.34 259.64C1080.33 216.521 1103.3 173.39 1126.41 130.336C1127.95 127.473 1128.05 125.384 1126.43 122.604C1123.61 117.778 1121.22 112.703 1118.27 107.001C1129.31 107.001 1139.56 106.905 1149.8 107.138C1150.92 107.164 1152.37 108.885 1153.05 110.151C1170.19 142.451 1187.24 174.795 1204.52 207.441ZM1110.14 226.271C1130.33 217.109 1151.71 214.07 1174.36 214.052C1164.28 194.868 1154.44 176.144 1144.28 156.8C1140.05 164.901 1136.03 172.498 1132.1 180.146C1124.3 195.342 1116.55 210.565 1108.29 226.033C1108.32 226.287 1108.34 226.542 1108.36 226.796C1108.72 226.684 1109.08 226.572 1110.14 226.271Z" fill="#2B3B2C"/>
<path d="M543.106 263.368C541.535 264.395 540.218 265.721 538.876 265.747C529.386 265.929 519.89 265.844 509.471 265.844C510.59 263.518 511.409 261.644 512.369 259.844C535.284 216.878 558.169 173.896 581.228 131.007C583.029 127.657 583.222 125.168 581.229 121.915C578.473 117.417 576.278 112.575 573.582 107.38C584.91 107.38 595.755 107.38 606.817 107.38C634.501 159.775 662.282 212.354 690.545 265.844C681.58 265.844 673.348 265.386 665.195 265.992C658.865 266.462 655.133 264.751 652.707 258.585C650.486 252.937 648.149 245.851 643.607 243.027C639.25 240.318 631.992 242.091 626.015 242.203C599.609 242.701 574.124 247.51 550.12 258.917C547.742 260.047 545.6 261.671 543.106 263.368ZM615.023 186.44C609.915 176.747 604.807 167.054 599.389 156.774C587.262 180.156 575.506 202.825 563.75 225.493C564.022 225.819 564.295 226.146 564.567 226.472C585.046 217.334 606.625 213.979 629.531 214.066C624.57 204.64 619.956 195.875 615.023 186.44Z" fill="#2B3B2C"/>
<path d="M454.696 138.631C458.738 129.104 462.52 119.881 466.6 110.791C467.251 109.343 469.214 107.556 470.612 107.519C481.093 107.244 491.584 107.369 502.793 107.369C501.904 109.587 501.232 111.384 500.471 113.143C479.033 162.687 457.551 212.212 436.227 261.805C434.891 264.912 433.414 266.009 430.038 265.933C419.545 265.695 409.042 265.767 398.546 265.9C395.913 265.934 394.366 265.356 393.242 262.702C371.674 211.77 350.005 160.881 328.371 109.977C328.126 109.4 328.065 108.745 327.741 107.381C338.827 107.381 349.566 107.246 360.291 107.567C361.513 107.603 363.103 110.007 363.777 111.624C379.944 150.409 396.007 189.238 412.1 228.055C412.731 229.578 413.459 231.06 414.456 233.252C427.988 201.422 441.261 170.201 454.696 138.631Z" fill="#2B3B2C"/>
<path d="M140.473 237.642C164.516 232.177 180.426 216.82 191.7 196.54C200.882 180.024 208.536 162.662 216.948 145.716C222.946 133.633 229.024 121.491 239.25 112.328C246.47 105.858 254.349 100.138 265.029 101.711C275.57 103.263 282.691 110.655 283.921 121.263C285.815 137.589 276.355 153.787 261.116 160.188C258.059 161.472 254.973 162.783 251.78 163.624C230.733 169.165 214.507 181.72 203.545 199.937C193.306 216.95 185.239 235.261 175.982 252.878C170.425 263.454 164.805 274.036 158.482 284.158C154.215 290.987 148.587 297.192 139.281 296.161C135.432 295.735 131.251 294.663 128.06 292.593C116.275 284.951 109.716 274.172 109.952 259.689C110.091 251.194 114.058 245.213 121.773 242.361C127.638 240.194 133.956 239.254 140.473 237.642Z" fill="#2B3B2C"/>
<path d="M764.724 110.289C764.729 151.741 764.729 192.718 764.729 234.323C792.199 234.323 819.403 234.323 846.801 234.323C846.801 244.901 846.801 254.852 846.801 265.079C808.996 265.079 771.239 265.079 733.222 265.079C733.222 212.769 733.222 160.53 733.222 107.727C743.052 107.727 752.814 107.683 762.573 107.817C763.297 107.827 764.004 109.118 764.724 110.289Z" fill="#2B3B2C"/>
<path d="M219.781 290.768C212.023 303.423 202.929 314.369 190.445 322.043C186.698 324.347 182.438 327.499 178.122 323.894C173.895 320.364 173.992 315.122 176.074 310.539C178.594 304.996 181.435 299.433 185.099 294.609C196.503 279.593 207.273 264.368 213.212 246.124C215.757 238.308 220.477 231.539 228.382 227.744C236.293 223.946 241.175 226.532 239.743 235.015C237.934 245.734 234.878 256.35 231.255 266.62C228.346 274.866 223.791 282.531 219.781 290.768Z" fill="#2B3B2C"/>
<path d="M986.059 30.9234C992.48 30.9234 998.412 30.9234 1005.41 30.9234C996.343 41.525 987.937 51.3248 979.56 61.1481C968.664 73.9249 968.673 73.9329 950.784 72.7437C952.431 69.9956 953.902 67.4801 955.431 65.0001C960.845 56.2164 966.759 47.6966 971.539 38.581C974.774 32.4097 978.746 29.5634 986.059 30.9234Z" fill="#EE4826"/>
<path d="M17.35 275.231C29.073 269.356 40.2812 272.056 46.4967 281.968C52.2932 291.211 50.3228 303.199 41.915 309.843C32.5678 317.229 18.8702 315.55 11.6122 306.129C4.22651 296.542 6.65651 282.81 17.35 275.231ZM44.3121 302.575C44.8317 301.537 45.4728 300.541 45.8513 299.453C48.512 291.807 46.1016 283.937 39.6294 278.949C33.5689 274.279 25.5592 273.874 19.0364 277.909C12.1266 282.184 8.93128 289.759 10.9221 297.696C12.7002 304.785 17.2893 309.336 24.383 310.968C32.562 312.849 39.0549 309.933 44.3121 302.575Z" fill="#EF5434"/>
<path d="M22.8864 286.242C25.5169 285.519 28.2897 284.574 30.5752 285.258C32.0831 285.71 34.2517 289.33 33.7798 290.106C31.5202 293.826 33.5656 297.017 34.0592 300.405C34.1169 300.801 33.76 301.257 33.5088 301.91C29.8851 300.628 32.275 292.566 25.3598 295.376C25.1461 297.217 24.8895 299.428 24.6328 301.639C24.0496 301.667 23.4664 301.695 22.8831 301.722C22.8627 296.719 22.8422 291.716 22.8864 286.242ZM28.1937 286.858C22.8583 286.663 25.5551 290.21 24.9935 293.99C27.8229 292.58 29.6222 291.683 31.4215 290.786C30.6235 289.483 29.8256 288.181 28.1937 286.858Z" fill="#EF5332"/>
</g>
<defs>
<clipPath id="clip0_36_20">
<rect width="1235" height="331" fill="white"/>
</clipPath>
</defs>
</svg>
