<svg width="1664" height="327" viewBox="0 0 1664 327" fill="none" xmlns="http://www.w3.org/2000/svg">
<g clip-path="url(#clip0_30_249)">
<path d="M272.52 322.44H0V0.469727H319.43V34.2097L14.73 12.8897L319.42 61.1297V97.9597L12.04 14.7897L319.43 130.79V173.29L9.68 17.2597L319.42 216.75V278.21L7.12 19.9797" fill="white"/>
<path d="M368.44 310.52V206.63H382.17C427.3 206.63 442.46 229.22 442.46 258.58C442.46 287.94 427.29 310.53 382.17 310.53H368.44V310.52ZM357.91 320.84H382.35C432.83 320.84 453.17 292.91 453.17 258.58C453.17 224.25 432.83 196.32 382.35 196.32H357.91V320.84Z" fill="white"/>
<path d="M477.25 320.84H543.97V310.52H487.78V261.96H537.01V251.82H487.78V206.63H543.97V196.32H477.25V320.84Z" fill="white"/>
<path d="M605.68 320.84H617.45L667.58 196.31H655.81L611.57 308.56L567.33 196.31H555.55L605.68 320.84Z" fill="white"/>
<path d="M686.31 320.84H753.03V310.52H696.84V261.96H746.07V251.82H696.84V206.63H753.03V196.32H686.31V320.84Z" fill="white"/>
<path d="M775.86 320.84H833.83V310.34H786.38V196.31H775.85V320.84H775.86Z" fill="white"/>
<path d="M844.53 258.57C844.53 228.86 868.43 205.2 898.05 205.2C927.67 205.2 951.57 228.86 951.57 258.57C951.57 288.28 927.84 311.94 898.05 311.94C868.26 311.94 844.53 288.28 844.53 258.57ZM898.05 322.43C933.55 322.43 962.27 293.97 962.27 258.57C962.27 223.17 933.55 194.71 898.05 194.71C862.55 194.71 834.01 223.17 834.01 258.57C834.01 293.97 862.73 322.43 898.05 322.43Z" fill="white"/>
<path d="M996.87 254.48V206.63H1027.37C1042 206.63 1053.06 214.28 1053.06 230.65C1053.06 247.02 1042 254.49 1027.37 254.49H996.87V254.48ZM986.35 320.84H996.88V264.45H1028.1C1049.33 264.45 1063.6 251.64 1063.6 230.47C1063.6 209.3 1049.33 196.32 1028.1 196.32H986.36V320.84H986.35Z" fill="white"/>
<path d="M1085.52 320.84H1096.05V215.53L1146 301.45L1196.3 215.18V320.84H1206.83V196.32H1195.95L1146.18 281.17L1096.59 196.32H1085.53V320.84H1085.52Z" fill="white"/>
<path d="M1236.79 320.84H1303.5V310.52H1247.32V261.96H1296.55V251.82H1247.32V206.63H1303.5V196.32H1236.79V320.84Z" fill="white"/>
<path d="M1326.34 320.84H1336.86V214.81L1416.96 320.84H1426.23V196.31H1415.89V302.69L1335.62 196.31H1326.34V320.84Z" fill="white"/>
<path d="M1479.2 320.84H1489.91V206.63H1524.87V196.31H1444.24V206.63H1479.2V320.84Z" fill="white"/>
<path d="M1573.39 322.43C1594.62 322.43 1611.38 309.98 1611.38 288.99C1611.38 270.67 1599.97 261.95 1577.13 252.34C1559.11 244.69 1549.3 238.29 1549.3 225.66C1549.3 213.03 1560 205.2 1573.2 205.2C1583.37 205.2 1591.93 209.65 1596.93 216.76L1605.14 209.82C1598.01 200.74 1586.23 194.7 1572.85 194.7C1554.12 194.7 1538.78 206.62 1538.78 226.36C1538.78 243.97 1550.38 252.69 1572.14 261.76C1590.87 269.59 1600.68 276.34 1600.68 289.33C1600.68 303.21 1588.73 311.92 1573.39 311.92C1558.05 311.92 1547.35 304.09 1542.89 292.35L1533.26 297.87C1539.68 312.64 1554.49 322.42 1573.4 322.42L1573.39 322.43Z" fill="white"/>
<path d="M407.5 141.93C385.36 141.93 367.35 134.38 358.66 127.92L358.59 127.87L357.79 98.1102L360.65 97.6702L360.7 97.8002C370.11 123.28 385.97 135.66 409.17 135.66C423.39 135.66 438.69 128.51 438.69 112.82C438.69 94.6202 415.4 85.4102 400 79.3202C399.17 78.9902 398.35 78.6702 397.56 78.3502L396.59 77.9502C377.04 69.8202 360.16 62.7902 360.16 40.2102C360.16 28.2102 364.93 18.1602 373.97 11.1502C382.95 4.18023 395.78 0.490234 411.05 0.490234C425.02 0.490234 438.15 3.35023 449.01 8.77024L449.1 8.82023L449.9 34.6302L447.45 35.5202L447.39 35.3602C439.59 15.8202 426.11 6.32023 406.17 6.32023C390.91 6.32023 375.51 13.2702 375.51 28.8002C375.51 45.4102 393.29 52.4702 408.98 58.6802L411.12 59.5302L411.74 59.7602C432.12 67.5302 455.23 76.3402 455.23 99.8302C455.23 115.67 446.89 125.54 439.89 131.04C431.08 137.95 419.27 141.92 407.49 141.92V141.9L407.5 141.93Z" fill="white"/>
<path d="M411.05 0.320312C395.73 0.320312 382.87 4.02031 373.86 11.0203C364.78 18.0703 359.99 28.1703 359.99 40.2203C359.99 50.6303 363.43 58.3803 370.82 64.5903C377.45 70.1803 386.73 74.0303 396.54 78.1203L397.51 78.5203C398.3 78.8403 399.12 79.1603 399.95 79.4903C407.78 82.5903 417.53 86.4403 425.22 91.7603C434.18 97.9603 438.54 104.85 438.54 112.83C438.54 128.4 423.33 135.49 409.2 135.49C385.76 135.49 370.4 123.5 360.89 97.7503L360.79 97.4803L360.51 97.5203L357.94 97.9103L357.63 97.9603V98.2703L358.43 127.79V127.96L358.57 128.06C367.29 134.54 385.34 142.1 407.52 142.1C419.34 142.1 431.19 138.12 440.02 131.17C447.05 125.65 455.42 115.74 455.42 99.8303C455.42 89.2903 450.73 80.7403 441.08 73.6903C432.7 67.5603 421.6 63.3303 411.81 59.6003L411.19 59.3603C410.49 59.0803 409.78 58.8003 409.06 58.5103C401.54 55.5303 393.01 52.1503 386.57 47.5103C379.25 42.2503 375.7 36.1203 375.7 28.7903C375.7 21.4603 378.93 15.8903 385.04 11.9303C390.45 8.42031 397.96 6.49031 406.19 6.49031C426.05 6.49031 439.48 15.9503 447.25 35.4203L447.38 35.7403L447.7 35.6203L449.87 34.8403L450.11 34.7503V34.5003L449.31 8.92031V8.71031L449.12 8.62031C438.23 3.19031 425.07 0.320312 411.07 0.320312H411.05ZM411.05 0.670313C425.65 0.670313 438.67 3.82031 448.94 8.94031L449.73 34.5203L447.56 35.3003C439.47 15.0303 425.31 6.15031 406.17 6.15031C390.38 6.15031 375.33 13.2603 375.33 28.8003C375.33 46.3103 395.26 53.4003 411.04 59.7003C431.17 67.3803 455.04 76.2303 455.04 99.8403C455.04 126.8 430.18 141.76 407.48 141.76C387.15 141.76 368.81 135.27 358.74 127.79L357.95 98.2703L360.52 97.8803C368.81 120.31 382.91 135.85 409.16 135.85C422.78 135.85 438.86 128.97 438.86 112.83C438.86 93.5403 413.4 84.4903 397.62 78.2003C377.29 69.7403 360.33 63.0503 360.33 40.2203C360.33 15.8203 380.06 0.670313 411.04 0.670313" fill="white"/>
<path d="M536.86 85.1005L512.73 34.3805L494.02 85.1005H536.86ZM551.96 139.96V136.9L552.08 136.86C553.84 136.27 554.89 135.49 555.39 134.38C556.59 131.73 554.61 127.11 551.33 119.48C550.97 118.64 550.59 117.75 550.2 116.83L538.4 88.6005H492.7L481.3 116.63C478.62 123.26 478.21 128.43 480.07 132.01C481.34 134.46 483.65 136.09 486.9 136.86L487.04 136.89V139.96H453.9V136.91L454.02 136.87C460.8 134.39 465.73 128.3 470.49 116.51L507.39 25.2105C508.9 21.4305 508.79 18.3005 507 14.7305L504.36 9.06047L524.01 0.230469L573.02 116.69C577.74 127.79 582.54 134.2 588.13 136.87L588.23 136.92V139.96H551.96Z" fill="white"/>
<path d="M494.27 84.93L512.75 34.84L536.58 84.93H494.27ZM524.1 0L523.77 0.15L504.43 8.81L504.11 8.96L504.26 9.28L506.83 14.79C508.6 18.31 508.71 21.41 507.22 25.14L470.32 116.44C465.58 128.19 460.68 134.25 453.95 136.7L453.72 136.78V140.13H487.22V136.75L486.95 136.69C483.74 135.93 481.48 134.34 480.23 131.94C478.39 128.41 478.82 123.29 481.47 116.71L492.82 88.79H538.29L550.04 116.91C550.43 117.84 550.81 118.72 551.17 119.56C554.43 127.15 556.39 131.74 555.23 134.32C554.75 135.38 553.73 136.14 552.03 136.71L551.79 136.79V140.15H588.41V136.82L588.21 136.73C582.67 134.09 577.89 127.7 573.19 116.64L524.24 0.33L524.1 0ZM493.77 85.28H537.15L512.72 33.93L493.78 85.28M523.92 0.47L572.86 116.77C578.38 129.76 583.52 134.87 588.05 137.04V139.8H552.14V137.04C558.65 134.87 555.89 129.76 550.37 116.77L538.53 88.43H492.59L481.15 116.57C475.82 129.76 480.16 135.46 486.87 137.03V139.79H454.08V137.03C460 134.86 465.33 129.75 470.65 116.57L507.55 25.27C509.13 21.34 508.93 18.19 507.16 14.64L504.59 9.13L523.93 0.47" fill="white"/>
<path d="M644.19 133.31C629.18 127.72 621.6 113.78 621.05 90.6602H621.4C622 112.43 629.71 126.68 644.32 132.99L644.19 133.32V133.31Z" fill="white"/>
<path d="M621.58 90.6396L620.88 90.6597C621.44 113.86 629.05 127.86 644.14 133.47L644.4 132.82C629.86 126.54 622.18 112.36 621.58 90.6396ZM621.23 90.6497C621.87 113.93 630.41 127.17 644.26 133.14C631.11 128.25 621.86 116.38 621.23 90.6497Z" fill="white"/>
<path d="M758.91 122.28C758.91 131.48 760.92 136.47 771.56 136.47H782.22C815.76 136.47 831.37 117.83 831.37 77.8101C831.37 33.1301 806.56 5.37012 766.63 5.37012H758.92V122.28H758.91ZM729.75 139.96V136.9L729.87 136.86C736.52 134.65 737.64 128.26 737.64 114.79V27.0301C737.64 13.5601 736.52 7.17012 729.87 4.96012L729.75 4.92012V1.87012H779.26C834.84 1.87012 854.8 37.5801 855.01 68.1601C855.11 89.3901 848.35 107.44 835.45 120.36C822.64 133.19 804.71 139.97 783.6 139.97H729.75V139.96Z" fill="white"/>
<path d="M759.09 5.53969H766.63C806.45 5.53969 831.2 33.2297 831.2 77.7997C831.2 98.4397 827.06 113.15 818.54 122.78C810.49 131.87 798.61 136.29 782.23 136.29H771.57C761.03 136.29 759.09 131.57 759.09 122.28V5.53969ZM779.25 1.68969H729.57V5.04969L729.81 5.12969C735.75 7.09969 737.46 12.0197 737.46 27.0297V114.79C737.46 129.81 735.75 134.72 729.81 136.69L729.57 136.77V140.13H783.6C804.77 140.13 822.74 133.33 835.58 120.47C848.51 107.52 855.28 89.4297 855.19 68.1497C855.13 58.4097 852.87 39.7297 838.55 24.0097C832.26 17.1097 824.39 11.7097 815.15 7.96969C804.83 3.79969 792.76 1.67969 779.26 1.67969L779.25 1.68969ZM771.56 136.64H782.22C813.99 136.64 831.55 119.91 831.55 77.7997C831.55 35.6897 810.63 5.18969 766.63 5.18969H758.74V122.27C758.74 131.52 760.71 136.63 771.57 136.63M779.25 2.03969C836.08 2.03969 854.63 39.2297 854.82 68.1597C855.02 110.86 827 139.79 783.58 139.79H729.91V137.03C736.42 134.86 737.8 128.96 737.8 114.79V27.0297C737.8 12.8597 736.42 6.95969 729.91 4.78969V2.03969H779.24" fill="white"/>
<path d="M873.98 139.96V136.9L874.1 136.86C880.75 134.65 881.87 128.26 881.87 114.79V27.0301C881.87 13.5601 880.75 7.17012 874.1 4.96012L873.98 4.92012V1.87012H911.031V4.93012L910.91 4.97012C904.26 7.18012 903.141 13.5701 903.141 27.0401V114.8C903.141 128.27 904.26 134.66 910.91 136.87L911.031 136.91V139.97H873.98V139.96Z" fill="white"/>
<path d="M911.22 1.69043H873.81V5.05043L874.05 5.13043C879.99 7.10043 881.7 12.0204 881.7 27.0304V114.79C881.7 129.81 879.99 134.72 874.05 136.69L873.81 136.77V140.13H911.22V136.77L910.98 136.69C905.04 134.72 903.33 129.8 903.33 114.79V27.0304C903.33 12.0104 905.04 7.10043 910.98 5.13043L911.22 5.05043V1.69043ZM910.87 2.04043V4.80043C904.36 6.97043 902.98 12.8704 902.98 27.0404V114.8C902.98 128.97 904.36 134.87 910.87 137.04V139.8H874.17V137.04C880.68 134.87 882.06 128.97 882.06 114.8V27.0304C882.06 12.8604 880.68 6.96043 874.17 4.79043V2.04043H910.87Z" fill="white"/>
<path d="M1044.65 141.93C999.35 141.93 970.09 113.82 970.09 70.3202C970.09 51.5502 977.37 34.1102 990.59 21.2002C1004.27 7.84024 1023.4 0.490234 1044.46 0.490234C1055.92 0.490234 1076.8 3.07023 1087.38 10.1602L1087.46 10.2102L1088.26 36.4202L1085.61 37.0802L1085.55 36.9402C1077.39 16.5102 1062.76 5.72023 1043.23 5.72023C1017.6 5.72023 991.57 21.6902 991.18 57.3502C990.91 82.5802 999.41 106.99 1013.37 121.05C1022.75 130.51 1034.12 135.3 1047.16 135.3C1052.93 135.3 1059.28 133.92 1066.59 131.08C1074.5 128 1079.62 121.24 1079.62 113.86V104.19C1079.62 89.2602 1078.09 83.5302 1069.49 81.1402L1069.36 81.1002V78.0402H1100.3V114.48L1100.26 114.53C1085.72 133.47 1061.87 141.95 1044.67 141.95L1044.65 141.93Z" fill="white"/>
<path d="M1044.45 0.320312C1023.34 0.320312 1004.17 7.69031 990.46 21.0803C977.21 34.0203 969.91 51.5103 969.91 70.3303C969.91 91.6303 976.93 109.65 990.19 122.46C1003.52 135.32 1022.35 142.12 1044.65 142.12C1053.6 142.12 1063.71 139.82 1073.11 135.64C1084.17 130.73 1093.6 123.46 1100.38 114.63L1100.45 114.54V77.8603H1069.16V81.2303L1069.42 81.3003C1077.36 83.5103 1079.42 88.2103 1079.42 104.18V113.85C1079.42 121.16 1074.35 127.86 1066.5 130.91C1059.21 133.74 1052.88 135.12 1047.14 135.12C1034.14 135.12 1022.82 130.34 1013.47 120.93C999.55 106.9 991.07 82.5403 991.34 57.3603C991.73 21.8103 1017.68 5.91031 1043.22 5.91031C1062.67 5.91031 1077.25 16.6703 1085.38 37.0303L1085.49 37.3203L1085.79 37.2403L1088.16 36.6503L1088.44 36.5803V36.3003L1087.64 10.3303V10.1503L1087.49 10.0503C1076.89 2.93031 1055.96 0.350313 1044.47 0.350313L1044.45 0.320312ZM1044.45 0.670313C1056.69 0.670313 1077.01 3.43031 1087.27 10.3103L1088.06 36.2803L1085.69 36.8703C1077.6 16.6003 1062.94 5.53031 1043.21 5.53031C1017.36 5.53031 991.37 21.7103 990.98 57.3303C990.59 94.5203 1009.25 135.45 1047.14 135.45C1053.76 135.45 1060.39 133.64 1066.63 131.22C1074.11 128.31 1079.77 121.84 1079.77 113.84V104.17C1079.77 88.8203 1078 83.3103 1069.51 80.9503V78.1903H1100.09V114.4C1085.29 133.69 1061.02 141.75 1044.64 141.75C999.26 141.75 970.25 113.41 970.25 70.3203C970.25 32.5403 1000.05 0.660313 1044.44 0.660313" fill="white"/>
<path d="M1159.09 65.8201C1178.66 65.8201 1189.9 55.7701 1189.9 38.2501C1189.9 21.8801 1179.16 5.37012 1155.15 5.37012C1152.39 5.37012 1149.53 5.56012 1146.64 5.94012V65.8201H1159.09ZM1218.09 141.34C1202 141.34 1197.88 131.29 1188.83 109.28L1188.13 107.58C1186.47 103.55 1185.01 99.8501 1183.71 96.5901C1175.63 76.1901 1172.91 69.3101 1158.1 69.3101H1146.63V114.79C1146.63 128.26 1147.75 134.65 1154.4 136.86L1154.52 136.9V139.96H1117.47V136.9L1117.59 136.86C1124.24 134.65 1125.36 128.26 1125.36 114.79V27.0301C1125.36 13.5601 1124.24 7.17012 1117.59 4.96012L1117.47 4.92012V1.87012H1159.08C1178.67 1.87012 1192.86 5.17012 1201.26 11.6701C1207.91 16.8201 1211.15 23.9701 1211.15 33.5301C1211.15 43.0901 1207.94 50.6801 1201.6 56.6801C1195.15 62.7901 1185.78 66.7101 1173.71 68.3501C1194.54 71.0801 1199.03 79.9201 1209.56 106.27C1219.91 132.18 1222.09 137.06 1229.33 137.06C1230.29 137.06 1231.29 137.06 1232.25 136.87L1232.46 136.83V139.93L1232.33 139.97C1227.53 141.22 1220.76 141.35 1218.08 141.35H1218.06L1218.09 141.34Z" fill="white"/>
<path d="M1146.82 6.08969C1149.64 5.72969 1152.44 5.54969 1155.15 5.54969C1179.03 5.54969 1189.73 21.9797 1189.73 38.2597C1189.73 48.4897 1185.75 65.6597 1159.1 65.6597H1146.82V6.08969ZM1159.1 1.68969H1117.31V5.04969L1117.55 5.12969C1123.49 7.09969 1125.2 12.0197 1125.2 27.0297V114.79C1125.2 129.81 1123.49 134.72 1117.55 136.69L1117.31 136.77V140.13H1154.72V136.77L1154.48 136.69C1148.54 134.72 1146.83 129.8 1146.83 114.79V69.4897H1158.12C1172.81 69.4897 1175.52 76.3297 1183.57 96.6597C1184.86 99.9197 1186.32 103.62 1187.99 107.65L1188.69 109.35C1193.21 120.35 1196.48 128.3 1200.67 133.6C1205.06 139.15 1210.28 141.52 1218.11 141.52C1220.8 141.52 1227.59 141.39 1232.41 140.13L1232.67 140.06V136.61L1232.25 136.69C1231.3 136.88 1230.35 136.88 1229.36 136.88C1222.24 136.88 1220.07 132.02 1209.76 106.21C1204.38 92.7297 1200.74 84.1197 1195.59 78.2597C1190.75 72.7497 1184.68 69.7897 1174.99 68.3497C1186.5 66.6097 1195.5 62.7297 1201.75 56.7997C1208.03 50.8497 1211.36 42.7997 1211.36 33.5197C1211.36 24.2397 1208.1 16.6997 1201.41 11.5197C1192.97 4.98969 1178.74 1.67969 1159.11 1.67969H1159.12L1159.1 1.68969ZM1146.47 65.9997H1159.1C1181.59 65.9997 1190.08 53.4097 1190.08 38.2497C1190.08 22.3097 1179.82 5.18969 1155.15 5.18969C1152.38 5.18969 1149.43 5.38969 1146.47 5.77969V65.9897V65.9997ZM1159.1 2.03969C1202.12 2.03969 1211 17.5897 1211 33.5197C1211 51.6197 1198.57 65.1997 1172.33 68.3497C1194.63 70.9097 1198.97 80.1597 1209.42 106.33C1219.88 132.5 1222.05 137.23 1229.35 137.23C1230.34 137.23 1231.32 137.23 1232.31 137.03V139.79C1227.77 140.97 1221.46 141.17 1218.1 141.17C1201.72 141.17 1197.77 130.54 1188.3 107.52C1176.46 78.7897 1175.47 69.1497 1158.11 69.1497H1146.47V114.8C1146.47 128.97 1147.85 134.87 1154.36 137.04V139.8H1117.66V137.04C1124.17 134.87 1125.55 128.97 1125.55 114.8V27.0297C1125.55 12.8597 1124.17 6.95969 1117.66 4.78969V2.03969H1159.1Z" fill="white"/>
<path d="M1291.5 5.76004C1280.03 5.76004 1270.32 9.66004 1263.4 17.04C1254.62 26.41 1250.62 40.68 1251.82 58.31C1253.19 77.83 1260.15 97.27 1270.92 111.64C1282.44 127.01 1297.39 135.48 1313 135.48C1325.18 135.48 1334.79 131.81 1341.56 124.59C1349.43 116.19 1353.17 102.86 1352.09 87.07C1349.31 47.65 1327.12 5.77004 1291.49 5.77004L1291.5 5.76004ZM1301.76 141.93C1267.65 141.93 1230.94 119.52 1230.94 70.32C1230.94 51.16 1237.93 33.52 1250.63 20.66C1263.59 7.52004 1281.75 0.290039 1301.76 0.290039C1336.85 0.290039 1372.38 24.75 1372.38 71.5C1372.38 93.51 1364.48 111.93 1349.53 124.76C1336.82 135.67 1319.41 141.92 1301.76 141.92V141.93Z" fill="white"/>
<path d="M1313.01 135.3C1297.45 135.3 1282.55 126.86 1271.07 111.53C1260.32 97.1901 1253.37 77.7801 1252 58.2901C1250.8 40.7101 1254.79 26.4901 1263.54 17.1501C1270.42 9.81012 1280.09 5.93012 1291.51 5.93012C1311.71 5.93012 1325.39 19.4501 1333.3 30.8001C1343.67 45.6501 1350.46 66.1601 1351.94 87.0701C1353.01 102.81 1349.29 116.09 1341.45 124.46C1334.72 131.65 1325.15 135.3 1313.02 135.3H1313.01ZM1301.76 0.120117C1281.7 0.120117 1263.5 7.37012 1250.5 20.5401C1237.77 33.4301 1230.77 51.1101 1230.77 70.3301C1230.77 93.0101 1238.68 111.85 1253.63 124.83C1266.29 135.81 1283.83 142.11 1301.76 142.11C1319.69 142.11 1336.9 135.84 1349.65 124.91C1364.64 112.04 1372.57 93.5801 1372.57 71.5101C1372.57 49.4401 1364.67 30.6901 1349.73 17.6501C1336.97 6.51012 1319.49 0.130117 1301.77 0.130117L1301.76 0.120117ZM1313.01 135.65C1343.2 135.65 1354.06 113.02 1352.28 87.0501C1349.32 45.1301 1325.64 5.58012 1291.5 5.58012C1264.66 5.58012 1249.47 26.4401 1251.64 58.3201C1254.41 97.6801 1279.46 135.65 1313.01 135.65ZM1301.76 0.470117C1335.11 0.470117 1372.2 23.3001 1372.2 71.5101C1372.2 119.72 1334.91 141.76 1301.76 141.76C1268.61 141.76 1231.12 119.72 1231.12 70.3301C1231.12 31.3601 1259.93 0.470117 1301.76 0.470117Z" fill="white"/>
<path d="M1564.59 80.0401C1589.3 80.0401 1601.31 68.6901 1601.31 45.3401C1601.31 34.2701 1597.48 8.52012 1562.02 8.52012C1560.09 8.52012 1557.46 8.71012 1556.08 8.89012V80.0401H1564.59ZM1526.92 139.96V136.9L1527.04 136.86C1533.69 134.65 1534.81 128.26 1534.81 114.79V27.0301C1534.81 13.5601 1533.69 7.17012 1527.04 4.96012L1526.92 4.92012V1.87012H1568.54C1588.68 1.87012 1603.69 6.30012 1613.16 15.0301C1622.57 23.7001 1623.97 34.5401 1623.97 40.2201C1623.97 53.2201 1619.13 64.3101 1609.97 72.3101C1599.82 81.1701 1584.47 85.8601 1565.58 85.8601H1556.09V114.81C1556.09 128.28 1557.21 134.67 1563.86 136.88L1563.98 136.92V139.98H1526.93L1526.92 139.96Z" fill="white"/>
<path d="M1556.26 9.04043C1557.67 8.86043 1560.18 8.69043 1562.03 8.69043C1597.33 8.69043 1601.14 34.3204 1601.14 45.3404C1601.14 56.3604 1598.23 65.1804 1592.49 70.8704C1586.47 76.8404 1577.08 79.8704 1564.6 79.8704H1556.27V9.04043H1556.26ZM1568.53 1.69043H1526.74V5.05043L1526.98 5.13043C1532.92 7.10043 1534.63 12.0204 1534.63 27.0304V114.79C1534.63 129.81 1532.92 134.72 1526.98 136.69L1526.74 136.77V140.13H1564.15V136.77L1563.91 136.69C1557.97 134.72 1556.26 129.8 1556.26 114.79V86.0204H1565.58C1584.51 86.0204 1599.9 81.3204 1610.08 72.4304C1619.27 64.4004 1624.14 53.2604 1624.14 40.2204C1624.14 34.5104 1622.73 23.6204 1613.27 14.9004C1603.77 6.14043 1588.72 1.70043 1568.54 1.70043L1568.53 1.69043ZM1555.91 80.2104H1564.59C1590.44 80.2104 1601.49 67.5704 1601.49 45.3304C1601.49 28.4104 1593.2 8.33043 1562.02 8.33043C1560.05 8.33043 1557.28 8.53043 1555.9 8.72043V80.2004L1555.91 80.2104ZM1568.53 2.04043C1613.52 2.04043 1623.78 24.2804 1623.78 40.2104C1623.78 64.8104 1606.02 85.6704 1565.57 85.6704H1555.9V114.79C1555.9 128.96 1557.28 134.86 1563.79 137.03V139.79H1527.09V137.03C1533.6 134.86 1534.98 128.96 1534.98 114.79V27.0304C1534.98 12.8604 1533.6 6.96043 1527.09 4.79043V2.04043H1568.53Z" fill="white"/>
<path d="M657.9 141.93C640.52 141.93 600.11 136.51 600.11 86.2601V27.0301C600.11 13.5601 598.99 7.18012 592.34 4.96012L592.22 4.92012V1.87012H629.27V4.93012L629.15 4.97012C622.5 7.18012 621.37 13.5701 621.37 27.0401V87.8401C621.37 88.4101 621.37 88.9801 621.38 89.5401C621.38 89.9101 621.39 90.2801 621.4 90.6501C621.96 113.61 629.45 127.45 644.32 132.98C648.1 134.39 652.32 135.28 657.22 135.7C658.04 135.77 658.89 135.81 659.73 135.81C678.07 135.81 697.81 120.43 697.81 86.6601V38.8401C697.81 15.1301 690.89 8.15012 680.5 4.97012L680.38 4.93012V1.87012H715.5V4.93012L715.38 4.97012C708.73 7.18012 707.61 13.5701 707.61 27.0401V86.2701C707.61 104.95 703 119.22 693.89 128.67C685.59 137.28 673.8 141.74 658.85 141.92H658.64C658.36 141.93 658.11 141.93 657.9 141.93Z" fill="white"/>
<path d="M715.67 1.69043H680.2V5.06043L680.45 5.14043C690.77 8.30043 697.63 15.2404 697.63 38.8404V86.6604C697.63 102.78 693.17 115.93 684.73 124.68C678.02 131.64 668.9 135.63 659.72 135.63C658.88 135.63 658.04 135.59 657.22 135.52C652.34 135.1 648.13 134.22 644.37 132.81C629.58 127.31 622.12 113.52 621.57 90.6404C621.56 90.2704 621.55 89.9104 621.55 89.5404C621.55 88.9604 621.54 88.4004 621.54 87.8404V27.0304C621.54 12.0104 623.26 7.10043 629.2 5.13043L629.44 5.05043V1.69043H592.03V5.05043L592.27 5.13043C598.21 7.10043 599.92 12.0204 599.92 27.0304V86.2604C599.92 105.78 606.07 120.55 618.21 130.14C630.7 140.02 646.69 142.1 657.89 142.1H658.83C673.84 141.92 685.67 137.44 694 128.79C703.14 119.3 707.77 105 707.77 86.2704V27.0304C707.77 12.0104 709.48 7.10043 715.42 5.13043L715.66 5.05043V1.69043H715.67ZM715.32 2.04043V4.80043C708.81 6.97043 707.43 12.8704 707.43 27.0404V86.2704C707.43 125.39 687.16 141.41 658.85 141.75H657.91C629.5 141.75 600.3 128.56 600.3 86.2604V27.0304C600.3 12.8604 598.91 6.96043 592.41 4.79043V2.04043H629.11V4.80043C622.6 6.97043 621.21 12.8704 621.21 27.0404V87.8404C621.21 88.4104 621.21 88.9804 621.22 89.5404C621.22 89.9104 621.23 90.2804 621.24 90.6504C621.86 116.38 631.12 128.25 644.27 133.14C648.27 134.63 652.62 135.48 657.21 135.86C658.03 135.93 658.88 135.97 659.74 135.97C676.09 135.97 698 122.92 698 86.6504V38.8304C698 14.8204 690.83 7.93043 680.57 4.79043V2.04043H715.34" fill="white"/>
<path d="M1455.07 141.93C1437.7 141.93 1397.28 136.51 1397.28 86.2601V27.0301C1397.28 13.5601 1396.16 7.18012 1389.51 4.96012L1389.39 4.92012V1.87012H1426.44V4.93012L1426.32 4.97012C1419.67 7.18012 1418.54 13.5701 1418.54 27.0401V87.8401C1418.54 88.4101 1418.54 88.9801 1418.55 89.5401C1418.55 89.9101 1418.56 90.2801 1418.57 90.6501C1419.13 113.61 1426.62 127.45 1441.49 132.98C1445.27 134.39 1449.49 135.28 1454.39 135.7C1455.21 135.77 1456.06 135.81 1456.9 135.81C1475.24 135.81 1494.98 120.43 1494.98 86.6601V38.8401C1494.98 15.1301 1488.06 8.15012 1477.67 4.97012L1477.55 4.93012V1.87012H1512.67V4.93012L1512.55 4.97012C1505.9 7.18012 1504.78 13.5701 1504.78 27.0401V86.2701C1504.78 104.95 1500.17 119.22 1491.06 128.67C1482.76 137.28 1470.97 141.74 1456.02 141.92H1455.81C1455.53 141.93 1455.28 141.93 1455.07 141.93Z" fill="white"/>
<path d="M1512.85 1.69043H1477.38V5.06043L1477.63 5.14043C1487.95 8.30043 1494.81 15.2404 1494.81 38.8404V86.6604C1494.81 102.78 1490.35 115.93 1481.91 124.68C1475.2 131.64 1466.08 135.63 1456.9 135.63C1456.06 135.63 1455.22 135.59 1454.4 135.52C1449.52 135.1 1445.31 134.22 1441.55 132.81C1426.76 127.31 1419.3 113.52 1418.75 90.6404C1418.74 90.2704 1418.73 89.9004 1418.73 89.5304C1418.73 88.9704 1418.72 88.4104 1418.72 87.8404V27.0304C1418.72 12.0104 1420.44 7.10043 1426.38 5.13043L1426.62 5.05043V1.69043H1389.21V5.05043L1389.45 5.13043C1395.39 7.10043 1397.1 12.0204 1397.1 27.0304V86.2604C1397.1 105.78 1403.25 120.55 1415.39 130.14C1427.88 140.02 1443.87 142.1 1455.07 142.1H1456.01C1471.02 141.92 1482.85 137.44 1491.18 128.79C1500.32 119.3 1504.95 105 1504.95 86.2704V27.0304C1504.95 12.0104 1506.66 7.10043 1512.6 5.13043L1512.84 5.05043V1.69043H1512.85ZM1512.5 2.04043V4.80043C1505.99 6.97043 1504.61 12.8704 1504.61 27.0404V86.2704C1504.61 125.39 1484.34 141.41 1456.03 141.75H1455.09C1426.68 141.75 1397.48 128.56 1397.48 86.2604V27.0304C1397.48 12.8604 1396.09 6.96043 1389.59 4.79043V2.04043H1426.29V4.80043C1419.78 6.97043 1418.39 12.8704 1418.39 27.0404V87.8404C1418.39 88.4104 1418.39 88.9804 1418.4 89.5404C1418.4 89.9104 1418.41 90.2804 1418.42 90.6504C1419.04 116.38 1428.3 128.25 1441.45 133.14C1445.45 134.63 1449.8 135.48 1454.4 135.86C1455.22 135.93 1456.07 135.97 1456.93 135.97C1473.28 135.97 1495.19 122.92 1495.19 86.6504V38.8304C1495.19 14.8204 1488.02 7.93043 1477.76 4.79043V2.04043H1512.53" fill="white"/>
<path d="M1645.4 294.15C1653.14 294.15 1659.49 300.6 1659.49 308.65H1663.11C1663.11 298.69 1655.22 290.53 1645.4 290.53V294.15ZM1631.31 308.65C1631.31 300.6 1637.66 294.15 1645.4 294.15V290.53C1635.58 290.53 1627.69 298.69 1627.69 308.65H1631.31ZM1645.4 323.15C1637.66 323.15 1631.31 316.7 1631.31 308.65H1627.69C1627.69 318.61 1635.58 326.77 1645.4 326.77V323.15ZM1659.49 308.65C1659.49 316.7 1653.14 323.15 1645.4 323.15V326.77C1655.22 326.77 1663.11 318.61 1663.11 308.65H1659.49Z" fill="white"/>
<path d="M1642.29 308.571H1646.69C1648.41 308.571 1649.3 307.731 1649.3 306.061C1649.3 304.041 1648.04 303.671 1646.63 303.671H1642.27V308.581H1642.28L1642.29 308.571ZM1639.61 301.421H1646.92C1650.28 301.421 1651.97 303.011 1651.97 305.661C1651.97 308.671 1649.96 309.441 1649.44 309.611V309.651C1650.36 309.761 1651.71 310.501 1651.71 312.971C1651.71 314.821 1651.97 316.461 1652.55 317.111H1649.67C1649.26 316.431 1649.26 315.571 1649.26 314.801C1649.26 311.921 1648.68 310.641 1646.21 310.641H1642.27V317.101H1639.59V301.391V301.421H1639.61Z" fill="white"/>
</g>
<defs>
<clipPath id="clip0_30_249">
<rect width="1663.11" height="326.77" fill="white"/>
</clipPath>
</defs>
</svg>
